<svg viewBox="0 0 400 300" xmlns="http://www.w3.org/2000/svg">
  <!-- Background -->
  <rect x="50" y="40" width="300" height="220" rx="10" fill="#f0f4ff" />
  
  <!-- Person celebrating -->
  <circle cx="130" cy="140" r="25" fill="#4f46e5" /> <!-- Head -->
  <path d="M130 165 L130 210" stroke="#4f46e5" stroke-width="10" stroke-linecap="round" /> <!-- Body -->
  <path d="M130 180 L110 200" stroke="#4f46e5" stroke-width="8" stroke-linecap="round" /> <!-- Left arm -->
  <path d="M130 180 L160 170" stroke="#4f46e5" stroke-width="8" stroke-linecap="round" /> <!-- Right arm up -->
  <path d="M130 210 L115 240" stroke="#4f46e5" stroke-width="8" stroke-linecap="round" /> <!-- Left leg -->
  <path d="M130 210 L145 240" stroke="#4f46e5" stroke-width="8" stroke-linecap="round" /> <!-- Right leg -->
  
  <!-- Light bulb idea -->
  <circle cx="250" cy="110" r="30" fill="#fef08a" stroke="#facc15" stroke-width="3" />
  <path d="M250 140 L250 155" stroke="#facc15" stroke-width="6" stroke-linecap="round" />
  <path d="M238 155 L262 155" stroke="#facc15" stroke-width="5" rx="2" />
  <path d="M240 160 L260 160" stroke="#facc15" stroke-width="4" rx="2" />
  
  <!-- Document with checkmarks -->
  <rect x="220" y="180" width="100" height="60" rx="5" fill="white" stroke="#cbd5e1" stroke-width="2" />
  <rect x="230" y="190" width="80" height="5" rx="2" fill="#94a3b8" />
  
  <circle cx="235" cy="205" r="6" fill="#4ade80" />
  <path d="M232 205 L235 208 L239 202" stroke="white" stroke-width="2" stroke-linecap="round" stroke-linejoin="round" />
  <rect x="245" y="203" width="50" height="4" rx="2" fill="#94a3b8" />
  
  <circle cx="235" cy="220" r="6" fill="#4ade80" />
  <path d="M232 220 L235 223 L239 217" stroke="white" stroke-width="2" stroke-linecap="round" stroke-linejoin="round" />
  <rect x="245" y="218" width="60" height="4" rx="2" fill="#94a3b8" />
  
  <!-- Decorative elements -->
  <circle cx="80" cy="70" r="10" fill="#818cf8" opacity="0.6" />
  <circle cx="320" cy="80" r="12" fill="#4f46e5" opacity="0.6" />
  <circle cx="90" cy="220" r="8" fill="#818cf8" opacity="0.8" />
  <circle cx="330" cy="200" r="10" fill="#818cf8" opacity="0.8" />
  
  <!-- Celebration stars -->
  <path d="M170 90 L175 100 L185 102 L177 110 L180 120 L170 115 L160 120 L163 110 L155 102 L165 100 Z" fill="#facc15" />
  <path d="M280 160 L283 165 L288 166 L284 170 L285 175 L280 173 L275 175 L276 170 L272 166 L277 165 Z" fill="#facc15" />
  <path d="M330 130 L333 135 L338 136 L334 140 L335 145 L330 143 L325 145 L326 140 L322 136 L327 135 Z" fill="#facc15" />
</svg>