<svg viewBox="0 0 400 300" xmlns="http://www.w3.org/2000/svg">
  <!-- Background elements -->
  <rect x="50" y="40" width="300" height="220" rx="10" fill="#f0f4ff" />
  
  <!-- Registration form -->
  <rect x="100" y="60" width="200" height="180" rx="8" fill="white" stroke="#e2e8f0" stroke-width="2" />
  
  <!-- Form header -->
  <rect x="120" y="80" width="160" height="8" rx="4" fill="#4f46e5" />
  <rect x="120" y="100" width="120" height="6" rx="3" fill="#94a3b8" />
  
  <!-- Form fields -->
  <rect x="120" y="120" width="160" height="24" rx="4" fill="#f1f5f9" stroke="#cbd5e1" stroke-width="1" />
  <rect x="130" y="130" width="80" height="4" rx="2" fill="#94a3b8" />
  
  <rect x="120" y="154" width="160" height="24" rx="4" fill="#f1f5f9" stroke="#cbd5e1" stroke-width="1" />
  <rect x="130" y="164" width="60" height="4" rx="2" fill="#94a3b8" />
  
  <!-- Submit button -->
  <rect x="120" y="188" width="80" height="30" rx="6" fill="#4f46e5" />
  <rect x="140" y="201" width="40" height="4" rx="2" fill="white" />
  
  <!-- Person icon -->
  <circle cx="300" cy="110" r="20" fill="#818cf8" />
  <circle cx="300" cy="100" r="8" fill="#4f46e5" />
  <path d="M280 130 Q300 120 320 130 L320 135 Q300 145 280 135 Z" fill="#4f46e5" />
  
  <!-- Decorative elements -->
  <circle cx="80" cy="70" r="8" fill="#818cf8" opacity="0.8" />
  <circle cx="320" cy="180" r="6" fill="#818cf8" opacity="0.8" />
  <circle cx="90" cy="200" r="10" fill="#4f46e5" opacity="0.6" />
  <circle cx="330" cy="60" r="12" fill="#4f46e5" opacity="0.6" />
</svg>