<svg viewBox="0 0 100 100" class="w-10 h-10 relative transition-transform duration-300 group-hover:scale-105" xmlns="http://www.w3.org/2000/svg"><defs><linearGradient id="neuralGradient" x1="0%" y1="0%" x2="100%" y2="100%"><stop offset="0%" stop-color="#818CF8"></stop><stop offset="100%" stop-color="#6366F1"></stop></linearGradient><linearGradient id="pulseGradient" x1="0%" y1="0%" x2="100%" y2="100%"><stop offset="0%" stop-color="#4F46E5"></stop><stop offset="100%" stop-color="#4338CA"></stop></linearGradient></defs><circle cx="50" cy="50" r="45" fill="#EEF2FF"></circle><circle cx="50" cy="50" r="42" fill="none" stroke="#E0E7FF" stroke-width="1"></circle><circle cx="50" cy="50" r="38" fill="none" stroke="#E0E7FF" stroke-width="1"></circle><circle cx="50" cy="50" r="45" fill="none" stroke="url(#pulseGradient)" stroke-width="2" stroke-dasharray="8 4" class="animate-spin-slow" style="transform-origin: center center; animation: 8s linear 0s infinite normal none running spin;"></circle><g class="neural-network"><circle cx="50" cy="50" r="6" fill="url(#neuralGradient)"></circle><g class="orbital-nodes"><circle cx="35" cy="35" r="4" fill="url(#neuralGradient)"></circle><circle cx="65" cy="35" r="4" fill="url(#neuralGradient)"></circle><circle cx="35" cy="65" r="4" fill="url(#neuralGradient)"></circle><circle cx="65" cy="65" r="4" fill="url(#neuralGradient)"></circle><circle cx="50" cy="30" r="2" fill="url(#neuralGradient)"></circle><circle cx="50" cy="70" r="2" fill="url(#neuralGradient)"></circle><circle cx="30" cy="50" r="2" fill="url(#neuralGradient)"></circle><circle cx="70" cy="50" r="2" fill="url(#neuralGradient)"></circle></g><g class="connections" stroke="url(#neuralGradient)" stroke-width="1.5"><path d="M35 35 Q50 50 65 35" fill="none"></path><path d="M35 65 Q50 50 65 65" fill="none"></path><path d="M35 35 Q50 50 35 65" fill="none"></path><path d="M65 35 Q50 50 65 65" fill="none"></path><path d="M50 30 Q50 40 50 44" fill="none" stroke-width="1"></path><path d="M50 56 Q50 60 50 70" fill="none" stroke-width="1"></path><path d="M30 50 Q40 50 44 50" fill="none" stroke-width="1"></path><path d="M56 50 Q60 50 70 50" fill="none" stroke-width="1"></path></g></g><g class="medical-cross"><path d="M50 35 L50 65 M35 50 L65 50" stroke="url(#pulseGradient)" stroke-width="4" stroke-linecap="round" fill="none"></path><circle cx="50" cy="35" r="2" fill="url(#pulseGradient)"></circle><circle cx="50" cy="65" r="2" fill="url(#pulseGradient)"></circle><circle cx="35" cy="50" r="2" fill="url(#pulseGradient)"></circle><circle cx="65" cy="50" r="2" fill="url(#pulseGradient)"></circle></g><circle cx="50" cy="50" r="44" fill="none" stroke="url(#neuralGradient)" stroke-width="0.5" opacity="0.5"></circle></svg>